<svg xmlns="http://www.w3.org/2000/svg" viewBox="0 0 36 25.25"><defs><style>.cls-1{fill:#fff;}</style></defs><title>books</title><g id="レイヤー_2" data-name="レイヤー 2"><g id="hd_アイコンのみ"><path class="cls-1" d="M7.13.41,1,.66A1,1,0,0,0,0,1.72L.9,24.27a1,1,0,0,0,1.07,1L8.11,25a1,1,0,0,0,1-1.06L8.2,1.39A1,1,0,0,0,7.13.41ZM6.35,6.6l-4.1.16-.08-2,4.1-.16Z"/><path class="cls-1" d="M17.38,0,11.23.25a1,1,0,0,0-1,1.06l.9,22.55a1,1,0,0,0,1.06,1l6.15-.24a1,1,0,0,0,1-1.07L18.45,1A1,1,0,0,0,17.38,0ZM16.6,6.19l-4.1.16-.08-2,4.1-.16Z"/><path class="cls-1" d="M24.52,1.3l-5.38,3a1,1,0,0,0-.39,1.39l10,17.94a1,1,0,0,0,1.39.4l5.38-3a1,1,0,0,0,.4-1.39L25.92,1.7a1,1,0,0,0-1.4-.4Z"/></g></g></svg>