<svg xmlns="http://www.w3.org/2000/svg" viewBox="0 0 119.44 32.54"><defs><style>.cls-1{fill:#fff;}</style></defs><title>logo</title><g id="レイヤー_2" data-name="レイヤー 2"><g id="header2"><path class="cls-1" d="M25,30.68a.83.83,0,0,1-.88,1.19H20.5A1.11,1.11,0,0,1,19.3,31l-1.42-4.78H7L5.59,31a1.1,1.1,0,0,1-1.19.87H1c-.79,0-1.11-.46-.88-1.19L9.32,2.2a1.1,1.1,0,0,1,1.2-.87h4a1.1,1.1,0,0,1,1.2.87ZM12.4,7.81l-4,13.71h8.1l-4-13.71Z"/><path class="cls-1" d="M51.77,21.3c0,6.45-4.3,10.5-11.15,10.5q-6.9,0-10.65-4.2A1.08,1.08,0,0,1,30,26l2-2.1a1,1,0,0,1,1.6.05,9,9,0,0,0,6.8,2.85c3.6,0,5.75-2.1,5.75-5.5S43.82,16,40.27,16a7.93,7.93,0,0,0-4.9,1.5,1.76,1.76,0,0,1-1.5.45l-2.25-.35a1.08,1.08,0,0,1-1.05-1.25l1-15.2A1.06,1.06,0,0,1,32.72,0h16.1A1,1,0,0,1,50,1.15v2.7A1,1,0,0,1,48.82,5H36.57l-.45,7.3h.1A10.59,10.59,0,0,1,41.67,11C47.72,11,51.77,15.1,51.77,21.3Z"/><path class="cls-1" d="M65.16,8.6v1.58h5.45a.92.92,0,0,1,1,1v2.16a.93.93,0,0,1-1,1H65.16v17.1a.92.92,0,0,1-1,1H61.29a.92.92,0,0,1-1-1V14.41H58.37a.93.93,0,0,1-1-1V11.21a.93.93,0,0,1,1-1h1.89V8.69C60.26,3.43,63,.5,68,.5a11.66,11.66,0,0,1,4.5.81A.9.9,0,0,1,73,2.66l-.9,2.07c-.27.68-.67.81-1.3.5a5.54,5.54,0,0,0-2.34-.5C66.38,4.73,65.16,6.13,65.16,8.6Z"/><path class="cls-1" d="M95.39,16.61V23c0,5.86-3.31,9.12-9.4,9.12-5.81,0-8.93-2.68-8.93-7.58,0-4.66,3-7.3,8.64-7.3h4.46V17c0-3.79-1.49-5.37-4.8-5.37a7.12,7.12,0,0,0-4.22,1.53,1,1,0,0,1-1.54-.24l-1.3-2a1,1,0,0,1,.24-1.54,12.07,12.07,0,0,1,7.3-2.26C92,7.1,95.39,10.32,95.39,16.61Zm-5.23,5.95V21.12H86.42c-2.59,0-4.13,1.15-4.13,3.27S83.63,27.6,86,27.6C88.87,27.6,90.16,26,90.16,22.56Z"/><path class="cls-1" d="M114.21,16.42c0-3.27-1.25-4.8-3.89-4.8s-3.94,1.53-3.94,4.8v14a1,1,0,0,1-1.1,1.11h-3a1,1,0,0,1-1.11-1.11V16.08c0-5.86,3.22-9,9.17-9s9.12,3.12,9.12,9V30.43a1,1,0,0,1-1.1,1.11h-3a1,1,0,0,1-1.1-1.11Z"/></g></g></svg>