<svg xmlns="http://www.w3.org/2000/svg" viewBox="0 0 32 25.99"><defs><style>.cls-1{fill:#fff;}</style></defs><title>twitter</title><g id="レイヤー_2" data-name="レイヤー 2"><g id="tw_hd1"><path class="cls-1" d="M32,3.07a12.84,12.84,0,0,1-3.77,1A6.59,6.59,0,0,0,31.12.47,13.42,13.42,0,0,1,27,2.07,6.57,6.57,0,0,0,15.6,6.56a6.14,6.14,0,0,0,.17,1.49A18.57,18.57,0,0,1,2.24,1.19a6.56,6.56,0,0,0,2,8.76,6.66,6.66,0,0,1-3-.81v.08a6.57,6.57,0,0,0,5.27,6.43,6.57,6.57,0,0,1-1.73.23,7.33,7.33,0,0,1-1.24-.11,6.6,6.6,0,0,0,6.13,4.56,13.16,13.16,0,0,1-8.15,2.81A13.64,13.64,0,0,1,0,23.05,18.62,18.62,0,0,0,10.07,26C22.14,26,28.74,16,28.74,7.32c0-.29,0-.57,0-.85A13.22,13.22,0,0,0,32,3.07Z"/></g></g></svg>